<?xml version="1.0" standalone="no"?>
<!DOCTYPE svg PUBLIC "-//W3C//DTD SVG 20010904//EN"
 "http://www.w3.org/TR/2001/REC-SVG-20010904/DTD/svg10.dtd">
<svg version="1.0" xmlns="http://www.w3.org/2000/svg"
 width="1000.000000pt" height="1000.000000pt" viewBox="0 0 1000.000000 1000.000000"
 preserveAspectRatio="xMidYMid meet">
<metadata>
Created by potrace 1.11, written by Peter Selinger 2001-2013
</metadata>
<g transform="translate(0.000000,1000.000000) scale(0.100000,-0.100000)"
fill="#000000" stroke="none">
<path d="M1187 7235 c-330 -91 -578 -335 -667 -659 -19 -69 -20 -109 -20
-1576 0 -1467 1 -1507 20 -1576 76 -275 266 -495 521 -606 48 -20 114 -44 147
-52 54 -14 447 -16 3812 -16 3365 0 3758 2 3812 16 325 84 579 334 668 658 19
69 20 109 20 1576 0 1467 -1 1507 -20 1576 -76 275 -266 495 -521 606 -48 20
-114 44 -147 52 -54 14 -446 16 -3818 15 -3084 -1 -3768 -3 -3807 -14z m7403
-2235 l0 -1340 -3590 0 -3590 0 0 1340 0 1340 3590 0 3590 0 0 -1340z"/>
<path d="M1840 5000 l0 -900 910 0 910 0 0 900 0 900 -910 0 -910 0 0 -900z"/>
</g>
</svg>
